<svg xmlns="http://www.w3.org/2000/svg" viewBox="0 0 512 512" role="img" aria-label="Gemma 4">
  <rect width="512" height="512" rx="112" fill="#f5f1e8"/>
  <rect x="72" y="72" width="368" height="368" rx="88" fill="#202124"/>
  <circle cx="380" cy="132" r="32" fill="#35c2ff"/>
  <path d="M154 178c28-34 66-52 114-52 42 0 78 14 108 42l-42 50c-18-18-40-27-66-27-24 0-44 8-60 25-16 16-24 38-24 66s8 50 24 66c17 16 39 24 66 24 20 0 38-4 54-13v-44h-72v-60h140v144c-36 28-78 42-126 42-50 0-90-15-120-44-30-30-45-68-45-115 0-40 16-75 49-104z" fill="#f5f1e8"/>
</svg>
